<svg preserveAspectRatio="none" width="100%" height="100%" overflow="visible" style="display: block;" viewBox="0 0 50 50" fill="none" xmlns="http://www.w3.org/2000/svg">
<g id="item">
<rect x="0.5" y="0.5" width="49" height="49" rx="24.5" stroke="var(--stroke-0, #F8F3EC)"/>
<g id="instagram">
<path d="M25 17.6265C27.3855 17.6265 27.7108 17.6265 28.6867 17.6265C29.5542 17.6265 29.988 17.8434 30.3133 17.9518C30.747 18.1687 31.0723 18.2771 31.3976 18.6024C31.7229 18.9277 31.9398 19.253 32.0482 19.6867C32.1566 20.012 32.2651 20.4458 32.3735 21.3133C32.3735 22.2892 32.3735 22.506 32.3735 25C32.3735 27.494 32.3735 27.7108 32.3735 28.6867C32.3735 29.5542 32.1566 29.988 32.0482 30.3133C31.8313 30.747 31.7229 31.0723 31.3976 31.3976C31.0723 31.7229 30.747 31.9398 30.3133 32.0482C29.988 32.1566 29.5542 32.2651 28.6867 32.3735C27.7108 32.3735 27.494 32.3735 25 32.3735C22.506 32.3735 22.2892 32.3735 21.3133 32.3735C20.4458 32.3735 20.012 32.1566 19.6867 32.0482C19.253 31.8313 18.9277 31.7229 18.6024 31.3976C18.2771 31.0723 18.0602 30.747 17.9518 30.3133C17.8434 29.988 17.7349 29.5542 17.6265 28.6867C17.6265 27.7108 17.6265 27.494 17.6265 25C17.6265 22.506 17.6265 22.2892 17.6265 21.3133C17.6265 20.4458 17.8434 20.012 17.9518 19.6867C18.1687 19.253 18.2771 18.9277 18.6024 18.6024C18.9277 18.2771 19.253 18.0602 19.6867 17.9518C20.012 17.8434 20.4458 17.7349 21.3133 17.6265C22.2892 17.6265 22.6145 17.6265 25 17.6265ZM25 16C22.506 16 22.2892 16 21.3133 16C20.3374 16 19.6867 16.2169 19.1446 16.4337C18.6024 16.6506 18.0602 16.9759 17.5181 17.5181C16.9759 18.0602 16.759 18.494 16.4337 19.1446C16.2169 19.6867 16.1084 20.3374 16 21.3133C16 22.2892 16 22.6145 16 25C16 27.494 16 27.7108 16 28.6867C16 29.6627 16.2169 30.3133 16.4337 30.8554C16.6506 31.3976 16.9759 31.9398 17.5181 32.4819C18.0602 33.0241 18.494 33.241 19.1446 33.5663C19.6867 33.7831 20.3374 33.8916 21.3133 34C22.2892 34 22.6145 34 25 34C27.3855 34 27.7108 34 28.6867 34C29.6627 34 30.3133 33.7831 30.8554 33.5663C31.3976 33.3494 31.9398 33.0241 32.4819 32.4819C33.0241 31.9398 33.241 31.506 33.5663 30.8554C33.7831 30.3133 33.8916 29.6627 34 28.6867C34 27.7108 34 27.3855 34 25C34 22.6145 34 22.2892 34 21.3133C34 20.3374 33.7831 19.6867 33.5663 19.1446C33.3494 18.6024 33.0241 18.0602 32.4819 17.5181C31.9398 16.9759 31.506 16.759 30.8554 16.4337C30.3133 16.2169 29.6627 16.1084 28.6867 16C27.7108 16 27.494 16 25 16Z" fill="#F8F3EC"/>
<path d="M25 20.3373C22.3976 20.3373 20.3373 22.3976 20.3373 25C20.3373 27.6024 22.3976 29.6627 25 29.6627C27.6024 29.6627 29.6627 27.6024 29.6627 25C29.6627 22.3976 27.6024 20.3373 25 20.3373ZM25 28.0361C23.3735 28.0361 21.9639 26.7349 21.9639 25C21.9639 23.3735 23.2651 21.9639 25 21.9639C26.6265 21.9639 28.0361 23.2651 28.0361 25C28.0361 26.6265 26.6265 28.0361 25 28.0361Z" fill="#F8F3EC"/>
<path d="M29.7711 21.3133C30.3699 21.3133 30.8554 20.8278 30.8554 20.2289C30.8554 19.6301 30.3699 19.1446 29.7711 19.1446C29.1722 19.1446 28.6867 19.6301 28.6867 20.2289C28.6867 20.8278 29.1722 21.3133 29.7711 21.3133Z" fill="#F8F3EC"/>
</g>
</g>
</svg>
